<svg width="56" height="11" viewBox="0 0 56 11" fill="none" xmlns="http://www.w3.org/2000/svg">
<path d="M55.1289 0.942413C54.1173 1.5304 52.2369 1.74962 52.2369 1.74962C52.2369 1.74962 32.2034 3.51629 28.8037 4.92118C30.3133 8.30484 25.8138 11.1847 20.3814 10.0838C19.2651 9.85768 18.4423 9.4683 18.1048 8.3232C17.7673 7.17809 20.7942 5.27954 24.0658 4.23827C16.9845 4.23161 9.40022 4.25673 3.17716 8.12629C2.45447 8.57566 1.42082 9.5463 0.255406 9.14346C0.07174 8.89383 -0.124692 8.73792 0.101672 8.47784C4.10935 3.87141 18.6095 0.716027 27.0431 3.27414C33.3266 0.794811 41.2492 0.753133 48.0115 0.118864C48.0115 0.118864 57.5394 -0.458607 55.1289 0.942413ZM22.1067 8.55579C23.0983 8.54615 23.5345 8.52842 24.3137 8.171C25.306 7.71592 27.5181 6.5758 26.3922 5.6448L26.0692 5.58659C24.5217 6.01054 22.3977 6.97829 21.504 7.90681C21.2856 8.13359 21.8189 8.42005 22.1067 8.55579Z" fill="#BDF12E"/>
</svg>
