<svg width="20" height="20" viewBox="0 0 20 20" fill="none" xmlns="http://www.w3.org/2000/svg">
<path d="M7.91699 4.16536V2.91536C7.91699 2.45513 8.29008 2.08203 8.75033 2.08203H17.0837C17.5439 2.08203 17.917 2.45513 17.917 2.91536V12.082C17.917 12.5423 17.5439 12.9154 17.0837 12.9154H15.417" stroke="#333333" stroke-width="1.66667" stroke-linecap="round" stroke-linejoin="round"/>
<path d="M11.2497 7.5H2.91634C2.4561 7.5 2.08301 7.8731 2.08301 8.33333V16.6667C2.08301 17.1269 2.4561 17.5 2.91634 17.5H11.2497C11.7099 17.5 12.083 17.1269 12.083 16.6667V8.33333C12.083 7.8731 11.7099 7.5 11.2497 7.5Z" stroke="#333333" stroke-width="1.66667" stroke-linecap="round" stroke-linejoin="round"/>
<path d="M7.08301 10.418V14.5846" stroke="#333333" stroke-width="1.66667" stroke-linecap="round" stroke-linejoin="round"/>
<path d="M5 12.5H9.16667" stroke="#333333" stroke-width="1.66667" stroke-linecap="round" stroke-linejoin="round"/>
</svg>
