<svg width="24" height="24" viewBox="0 0 24 24" fill="none" xmlns="http://www.w3.org/2000/svg">
<path d="M7.5 9C9.15686 9 10.5 7.65686 10.5 6C10.5 4.34315 9.15686 3 7.5 3C5.84314 3 4.5 4.34315 4.5 6C4.5 7.65686 5.84314 9 7.5 9Z" fill="#D7F351" stroke="#333333" stroke-width="1.5" stroke-linejoin="round"/>
<path d="M15.5 9C17.1569 9 18.5 7.65686 18.5 6C18.5 4.34315 17.1569 3 15.5 3C13.8431 3 12.5 4.34315 12.5 6C12.5 7.65686 13.8431 9 15.5 9Z" fill="#D7F351" stroke="#333333" stroke-width="1.5" stroke-linejoin="round"/>
<path d="M3 21C3 20.5556 3 19.0556 3 16.5C3 13.7386 4.88511 11.5 7.21055 11.5C8.33335 11.5 9.17545 11.5 9.73685 11.5C10.6792 11.5 11.4467 11.9286 12 12.3903" stroke="#333333" stroke-width="1.5" stroke-linecap="round" stroke-linejoin="round"/>
<path d="M21 21C21 20.5556 21 19.0556 21 16.5C21 13.7386 19.0925 11.5 16.7394 11.5C15.6032 11.5 14.7511 11.5 14.183 11.5C13.281 11.5 12.5396 11.9176 12 12.3724" stroke="#333333" stroke-width="1.5" stroke-linecap="round" stroke-linejoin="round"/>
<path d="M5.5 19H19" stroke="#333333" stroke-width="1.5" stroke-linecap="round" stroke-linejoin="round"/>
<path d="M17.1477 17.1289L17.7675 17.7525L19.0071 18.9997L17.7675 20.2804L17.1477 20.9208" stroke="#333333" stroke-width="1.5" stroke-linecap="round" stroke-linejoin="round"/>
<path d="M7.16468 17.1172L6.53508 17.744L5.27588 18.9975L6.53508 20.2719L7.16468 20.9091" stroke="#333333" stroke-width="1.5" stroke-linecap="round" stroke-linejoin="round"/>
</svg>
