<svg width="24" height="24" viewBox="0 0 24 24" fill="none" xmlns="http://www.w3.org/2000/svg">
<path d="M14.1404 20.5C15.9122 20.5 17.5517 19.5623 18.4501 18.035L20.5088 14.535C21.4292 12.9703 21.4292 11.0297 20.5088 9.46496L18.4501 5.96496C17.5517 4.43773 15.9122 3.5 14.1404 3.5H9.8598C8.08799 3.5 6.44851 4.43769 5.55015 5.96486L3.49129 9.46486C2.57082 11.0296 2.57082 12.9704 3.49129 14.5351L5.55015 18.0351C6.44851 19.5623 8.088 20.5 9.8598 20.5H14.1404Z" stroke="#333333" stroke-width="1.5" stroke-linejoin="round"/>
<path d="M12 14.5C13.3807 14.5 14.5 13.3807 14.5 12C14.5 10.6193 13.3807 9.5 12 9.5C10.6193 9.5 9.5 10.6193 9.5 12C9.5 13.3807 10.6193 14.5 12 14.5Z" fill="#D7F351" stroke="#333333" stroke-width="1.5" stroke-linejoin="round"/>
</svg>
