<svg width="10" height="10" viewBox="0 0 10 10" fill="none" xmlns="http://www.w3.org/2000/svg">
<path d="M7.84199 4.13329L3.91 0.638755C3.70019 0.452574 3.3623 0.453846 3.15473 0.642027C3.10554 0.685783 3.06644 0.738456 3.03984 0.796815C3.01323 0.855175 2.99968 0.917991 3.00001 0.981413C3.00033 1.04484 3.01454 1.10753 3.04175 1.16564C3.06896 1.22376 3.1086 1.27608 3.15824 1.31939L6.71318 4.47919L3.17256 7.68364C3.12335 7.72739 3.08424 7.78007 3.05763 7.83844C3.03101 7.89681 3.01745 7.95963 3.01778 8.02307C3.01811 8.0865 3.03232 8.1492 3.05954 8.20733C3.08675 8.26545 3.12641 8.31778 3.17607 8.36109C3.27757 8.45081 3.41224 8.50057 3.55204 8.5C3.68958 8.5 3.82701 8.45272 3.93133 8.35818L7.82748 4.83146C7.83313 4.82637 7.83488 4.81901 7.84063 4.81356C7.84199 4.81228 7.84384 4.81201 7.8452 4.81074C7.89439 4.76698 7.93349 4.71431 7.96011 4.65595C7.98672 4.5976 8.0003 4.53479 8 4.47137C7.99969 4.40794 7.98553 4.34525 7.95836 4.28711C7.93119 4.22898 7.89159 4.17664 7.84199 4.13329Z" fill="#7C8191"/>
</svg>
