<svg width="109" height="112" viewBox="0 0 109 112" fill="none" xmlns="http://www.w3.org/2000/svg">
<path d="M53.4917 24.2814C55.2609 23.6506 57.8196 23.5417 59.5786 24.1962C64.0929 25.8766 64.6139 30.0104 64.3796 34.1255C67.6379 32.6912 71.4677 31.4572 74.4496 34.2648C75.5627 35.306 76.2002 36.7585 76.2144 38.2804C76.2344 40.5007 75.2218 42.1318 73.7366 43.6566C75.2639 44.3725 76.2166 44.9182 77.295 46.2592C78.5308 47.7636 79.1062 49.7049 78.8913 51.6409C78.6652 53.588 77.6542 55.3569 76.0919 56.5371C73.5795 58.4434 70.8985 58.4097 67.9675 58.0356C69.0285 63.7642 67.9651 67.5647 62.5933 70.1627C63.6186 75.2122 64.1871 80.4349 64.7619 85.5576C68.0251 79.4004 72.1732 74.4765 78.9037 72.0797C80.752 71.3171 83.3741 71.9045 83.5104 74.2943C84.1608 85.727 75.2296 92.9133 65.2669 95.0087C65.3629 97.0244 66.2491 102.991 63.4669 103.124C62.0287 102.209 62.6111 101.059 61.9211 100.42L61.2729 100.454C55.4502 99.7787 53.0129 98.795 48.2357 94.8415C45.1586 92.2961 38.2849 80.1794 46.485 80.2023C51.4336 80.2164 58.4746 87.0796 61.7569 90.8856C61.8317 84.4207 60.665 77.0446 59.6487 70.681C54.4935 70.4417 52.668 67.6496 51.3545 63.0754C50.9513 63.4857 50.541 63.8882 50.125 64.2855C43.9136 70.1723 34.5486 68.5239 34.5054 58.7871C34.4906 55.3896 36.9782 52.7029 39.4094 50.5621C37.2388 49.2623 35.46 47.6904 34.5746 45.254C33.7094 42.8157 33.8653 40.1282 35.0071 37.8058C36.0743 35.5743 37.9913 33.8638 40.329 33.0559C43.059 32.1372 44.9334 32.6439 47.3469 33.86C47.926 29.6365 49.439 26.1766 53.4917 24.2814ZM62.2705 43.54C60.9299 40.0782 57.5353 39.0439 54.1495 40.0002C50.0535 41.6402 47.3586 45.859 49.0836 50.1842C49.6306 51.5919 50.7401 52.7056 52.1442 53.2603C53.7299 53.8974 55.5787 53.792 57.2073 53.3791C59.4945 52.5433 61.0443 51.7033 62.1354 49.3021C62.9438 47.4748 62.9935 45.4026 62.2705 43.54ZM12.2768 38.8825C14.8098 42.3314 18.6954 44.5341 22.9555 44.9367L23.4495 44.9836L23.0496 45.2775C19.6008 47.8105 17.3979 51.696 16.9954 55.9561L16.9483 56.4491L16.6556 56.05C14.1225 52.601 10.2361 50.3976 5.97578 49.995L5.48293 49.9489L5.88186 49.6552C9.33087 47.1222 11.5345 43.2366 11.937 38.9764L11.9839 38.4824L12.2768 38.8825ZM57.1019 43.9606C57.4043 43.7046 57.8227 43.6355 58.1932 43.7811C58.5613 43.9253 58.8226 44.2608 58.8695 44.656C58.9179 45.0485 58.7456 45.4356 58.4226 45.6649C57.952 45.9991 57.2998 45.9021 56.9461 45.4466C56.5924 44.989 56.6595 44.3341 57.1019 43.9606ZM53.3153 44.4748C53.8758 44.2461 54.5178 44.5177 54.741 45.0814C54.9658 45.6448 54.6872 46.2835 54.1206 46.5028C53.5622 46.7201 52.9338 46.4454 52.7141 45.8874C52.4928 45.3301 52.7613 44.7007 53.3153 44.4748ZM83.3348 25.746C84.9736 25.5764 89.493 25.9422 90.6683 27.2971C90.9582 28.1886 90.8679 27.9478 90.6615 28.9528C89.0725 29.2842 84.1478 28.8688 83.1254 27.3132C82.9031 26.6614 83.0858 26.3758 83.3348 25.746ZM90.8135 12.263C91.6629 12.0464 92.0044 12.1094 92.7295 12.5548C93.6372 14.6182 84.817 19.3669 82.9284 20.6392C82.5149 20.8539 82.2645 20.8537 81.8071 20.9142C80.8377 20.6229 80.5898 20.5913 80.5182 19.6286C81.3264 17.4925 88.2455 13.6258 90.4668 12.3622C90.5805 12.3271 90.6967 12.2934 90.8135 12.263ZM79.4799 2.12749C79.8354 2.09398 80.2582 2.09675 80.6211 2.08946C81.0067 2.28766 81.5086 2.51844 81.5524 3.00063C81.7342 5.00977 78.6033 14.1782 77.7889 15.4818C76.6354 15.6184 76.417 15.6919 75.7186 14.7357C75.3966 13.2852 78.6097 3.59803 79.4799 2.12749ZM68.5334 7.6C71.354 7.79937 70.8878 12.3354 69.8526 13.8874C69.1827 13.8125 69.0962 13.7968 68.5179 13.449C67.5183 12.1898 67.7256 8.84282 68.5334 7.6Z" fill="url(#paint0_linear_6842_15480)"/>
<defs>
<linearGradient id="paint0_linear_6842_15480" x1="43.393" y1="9.24892" x2="61.9776" y2="103.439" gradientUnits="userSpaceOnUse">
<stop stop-color="#E4F588"/>
<stop offset="1" stop-color="#E4F588" stop-opacity="0.6"/>
</linearGradient>
</defs>
</svg>
